<svg id="Capa_1" enable-background="new 0 0 499.999 499.999" height="512" viewBox="0 0 499.999 499.999" width="512" xmlns="http://www.w3.org/2000/svg"><path d="m15.625 437.498c-2.625 0-5.264-.671-7.645-1.999-4.928-2.762-7.98-7.98-7.98-13.626v-343.749c0-5.646 3.052-10.864 7.98-13.626 4.959-2.731 10.971-2.655 15.793.29l281.249 171.875c4.639 2.838 7.477 7.889 7.477 13.336s-2.838 10.498-7.477 13.336l-281.249 171.874c-2.502 1.526-5.325 2.289-8.148 2.289zm15.625-331.512v288.024l235.656-144.012s-235.656-144.012-235.656-144.012z"/><path d="m484.374 437.499h-125c-8.636 0-15.625-6.989-15.625-15.625v-343.749c0-8.636 6.988-15.625 15.625-15.625h125c8.636 0 15.625 6.989 15.625 15.625v343.749c0 8.637-6.988 15.625-15.625 15.625zm-109.375-31.25h93.75v-312.499h-93.75z"/></svg>