<svg id="Capa_1" enable-background="new 0 0 499.999 499.999" height="512" viewBox="0 0 499.999 499.999" width="512" xmlns="http://www.w3.org/2000/svg"><path d="m493.224 237.126-250-171.875c-4.791-3.281-11.002-3.677-16.128-.946-5.127 2.701-8.347 8.026-8.347 13.824v120.685l-194.274-133.563c-4.791-3.281-11.017-3.677-16.128-.946-5.127 2.701-8.347 8.026-8.347 13.824v343.749c0 5.798 3.22 11.124 8.347 13.824 2.289 1.205 4.791 1.801 7.278 1.801 3.098 0 6.195-.931 8.85-2.747l194.275-133.563v120.685c0 5.798 3.22 11.124 8.347 13.824 2.289 1.205 4.791 1.801 7.278 1.801 3.098 0 6.195-.931 8.85-2.747l250-171.875c4.242-2.914 6.775-7.736 6.775-12.878-.001-5.141-2.534-9.963-6.776-12.877zm-461.974 155.044v-284.332l187.5 128.902v26.527c0 .001-187.5 128.903-187.5 128.903zm218.75 0v-284.332l206.802 142.166z"/></svg>