<svg id="Capa_1" enable-background="new 0 0 499.999 499.999" height="512" viewBox="0 0 499.999 499.999" width="512" xmlns="http://www.w3.org/2000/svg"><path d="m491.653 64.294c-5.157-2.701-11.353-2.304-16.129.946l-194.275 133.563v-120.685c0-5.798-3.22-11.124-8.347-13.824-5.127-2.701-11.337-2.304-16.129.946l-250 171.875c-4.24 2.914-6.773 7.736-6.773 12.878s2.533 9.964 6.775 12.878l250 171.875c2.655 1.816 5.753 2.747 8.85 2.747 2.487 0 4.99-.595 7.278-1.801 5.127-2.701 8.347-8.026 8.347-13.824v-120.686l194.275 133.564c2.655 1.816 5.753 2.747 8.85 2.747 2.487 0 4.99-.595 7.278-1.801 5.127-2.701 8.347-8.026 8.347-13.824v-343.75c-.001-5.798-3.22-11.123-8.347-13.824zm-241.653 327.865-206.802-142.166 206.802-142.166zm218.749 0-187.5-128.902v-26.527l187.5-128.902c0-.001 0 284.33 0 284.331z"/></svg>