<?xml version="1.0" encoding="UTF-8" standalone="no"?>
<!-- Created with Inkscape (http://www.inkscape.org/) -->

<svg
   xmlns:dc="http://purl.org/dc/elements/1.1/"
   xmlns:cc="http://creativecommons.org/ns#"
   xmlns:rdf="http://www.w3.org/1999/02/22-rdf-syntax-ns#"
   xmlns:svg="http://www.w3.org/2000/svg"
   xmlns="http://www.w3.org/2000/svg"
   xmlns:sodipodi="http://sodipodi.sourceforge.net/DTD/sodipodi-0.dtd"
   xmlns:inkscape="http://www.inkscape.org/namespaces/inkscape"
   width="210mm"
   height="297mm"
   viewBox="0 0 744.09448819 1052.3622047"
   id="svg2"
   version="1.1"
   inkscape:version="0.91 r13725"
   sodipodi:docname="IMAT Pinhole Selector Schematic - Position 4.svg">
  <title
     id="title4138">IMAT Pinhole Selector Schematic - Position 4</title>
  <defs
     id="defs4" />
  <sodipodi:namedview
     id="base"
     pagecolor="#ffffff"
     bordercolor="#666666"
     borderopacity="1.0"
     inkscape:pageopacity="0.0"
     inkscape:pageshadow="2"
     inkscape:zoom="0.175"
     inkscape:cx="627.11597"
     inkscape:cy="634.60053"
     inkscape:document-units="px"
     inkscape:current-layer="layer1"
     showgrid="true"
     showborder="false"
     inkscape:window-width="1303"
     inkscape:window-height="906"
     inkscape:window-x="360"
     inkscape:window-y="66"
     inkscape:window-maximized="0"
     objecttolerance="10000"
     guidetolerance="10000"
     inkscape:snap-perpendicular="true">
    <inkscape:grid
       type="xygrid"
       id="grid4144"
       dotted="false"
       empspacing="50"
       spacingx="1"
       spacingy="1" />
  </sodipodi:namedview>
  <metadata
     id="metadata7">
    <rdf:RDF>
      <cc:Work
         rdf:about="">
        <dc:format>image/svg+xml</dc:format>
        <dc:type
           rdf:resource="http://purl.org/dc/dcmitype/StillImage" />
        <dc:title>IMAT Pinhole Selector Schematic - Position 4</dc:title>
      </cc:Work>
    </rdf:RDF>
  </metadata>
  <g
     inkscape:label="Layer 1"
     inkscape:groupmode="layer"
     id="layer1">
    <rect
       style="opacity:1;fill:#000000;fill-opacity:1;stroke:#000000;stroke-width:1.13960123;stroke-miterlimit:4;stroke-dasharray:none;stroke-opacity:1"
       id="rect4192"
       width="398.86041"
       height="398.86041"
       x="-654.08319"
       y="-1791.6366"
       inkscape:transform-center-y="349.99997"
       transform="matrix(-0.5,0.8660254,-0.8660254,-0.5,0,0)"
       inkscape:transform-center-x="-606.21771" />
    <path
       style="opacity:1;fill:#000000;fill-opacity:1;stroke:#000000;stroke-width:1.13960123;stroke-miterlimit:4;stroke-dasharray:none;stroke-opacity:1"
       d="m 1199.4299,951.79278 7e-4,-398.86063 -398.86062,-7.3e-4 -8e-4,398.86063 398.86072,7.3e-4 z M 1022.2777,764.07071 a 24.916943,24.916943 0 0 1 -21.866,12.97073 24.916943,24.916943 0 0 1 -24.91743,-24.91601 24.916943,24.916943 0 0 1 24.91863,-24.91808 24.916943,24.916943 0 0 1 24.9164,24.91765 24.916943,24.916943 0 0 1 -3.0516,11.94571 z"
       id="rect4194"
       inkscape:connector-curvature="0" />
    <path
       style="opacity:1;fill:#000000;fill-opacity:1;stroke:#000000;stroke-width:1.13960123;stroke-miterlimit:4;stroke-dasharray:none;stroke-opacity:1"
       d="M 666.20918,475.35818 466.77818,129.93507 121.35506,329.366 320.78608,674.78912 666.20918,475.35818 Z M 436.91379,425.06415 a 49.503315,49.503315 0 0 1 -19.2398,20.16802 49.503315,49.503315 0 0 1 -67.6238,-18.11818 49.503315,49.503315 0 0 1 18.11978,-67.62283 49.503315,49.503315 0 0 1 67.62291,18.11984 49.503315,49.503315 0 0 1 1.12091,47.45315 z"
       id="rect4196"
       inkscape:connector-curvature="0" />
    <path
       style="opacity:1;fill:#000000;fill-opacity:1;stroke:#000000;stroke-width:1.13960123;stroke-miterlimit:4;stroke-dasharray:none;stroke-opacity:1"
       d="m 666.20897,-370.63374 -345.4241,-199.4307 -199.42958,345.42243 345.42399,199.430651 199.42969,-345.422381 z m -210.47318,108.47616 a 74.501663,74.501663 0 0 1 -101.77061,27.2679 74.501663,74.501663 0 0 1 -27.2706,-101.76988 74.501663,74.501663 0 0 1 101.77159,-27.26964 74.501663,74.501663 0 0 1 27.26962,101.77162 z"
       id="rect4198"
       inkscape:connector-curvature="0" />
    <path
       style="opacity:1;fill:#000000;fill-opacity:1;stroke:#000000;stroke-width:1.13960123;stroke-miterlimit:4;stroke-dasharray:none;stroke-opacity:1"
       d="m 1199.4299,-448.20716 7e-4,-398.86063 -398.86072,-7.6e-4 -7e-4,398.86065 398.86072,7.4e-4 z m -112.7876,-153.07587 a 99.66777,99.66777 0 0 1 -87.46682,51.8837 99.66777,99.66777 0 0 1 -99.66781,-99.66729 99.66777,99.66777 0 0 1 99.66721,-99.66774 99.66777,99.66777 0 0 1 99.66782,99.66729 99.66777,99.66777 0 0 1 -12.2004,47.78404 z"
       id="rect4200"
       inkscape:connector-curvature="0" />
    <path
       style="opacity:1;fill:#000000;fill-opacity:1;stroke:#000000;stroke-width:1.13960123;stroke-miterlimit:4;stroke-dasharray:none;stroke-opacity:1"
       d="m 1878.6447,-224.64178 -199.431,-345.4231 -345.423,199.43096 199.4309,345.423089 345.4231,-199.430949 z M 1716.93,-240.98119 a 124.58472,124.58472 0 0 1 -48.4201,50.7605 124.58472,124.58472 0 0 1 -170.1858,-45.60065 124.58472,124.58472 0 0 1 45.6007,-170.18584 124.58472,124.58472 0 0 1 170.1858,45.60075 124.58472,124.58472 0 0 1 2.8194,119.42524 z"
       id="rect4202"
       inkscape:connector-curvature="0" />
    <ellipse
       style="opacity:1;fill:none;fill-opacity:1;stroke:#000000;stroke-width:9.9568491;stroke-miterlimit:4;stroke-dasharray:none;stroke-opacity:1"
       id="path4136"
       cx="52.362194"
       cy="-1000"
       rx="995.02161"
       ry="995.02155"
       transform="matrix(0,1,-1,0,0,0)" />
    <circle
       style="opacity:1;fill:#000000;fill-opacity:1;stroke:#000000;stroke-width:1.22549021;stroke-miterlimit:4;stroke-dasharray:none;stroke-opacity:1"
       id="path4170"
       cx="-454.65302"
       cy="-892.20642"
       r="30.637255"
       transform="matrix(-0.5,0.8660254,-0.8660254,-0.5,0,0)" />
    <g
       id="g4255">
      <path
         inkscape:connector-curvature="0"
         id="path4239"
         d="m 952.02031,-647.99843 99.99999,0 0,0"
         style="fill:none;fill-rule:evenodd;stroke:#ff0000;stroke-width:4.87950087;stroke-linecap:butt;stroke-linejoin:miter;stroke-miterlimit:4;stroke-dasharray:none;stroke-opacity:1" />
      <path
         inkscape:connector-curvature="0"
         id="path4241"
         d="m 1000.2333,-695.62583 0,95.24071 0,0"
         style="fill:none;fill-rule:evenodd;stroke:#ff0000;stroke-width:4.76195908;stroke-linecap:butt;stroke-linejoin:miter;stroke-miterlimit:4;stroke-dasharray:none;stroke-opacity:1" />
    </g>
  </g>
</svg>
