<?xml version="1.0" encoding="UTF-8" standalone="no"?>
<!-- Created with Inkscape (http://www.inkscape.org/) -->

<svg
   xmlns:dc="http://purl.org/dc/elements/1.1/"
   xmlns:cc="http://creativecommons.org/ns#"
   xmlns:rdf="http://www.w3.org/1999/02/22-rdf-syntax-ns#"
   xmlns:svg="http://www.w3.org/2000/svg"
   xmlns="http://www.w3.org/2000/svg"
   xmlns:sodipodi="http://sodipodi.sourceforge.net/DTD/sodipodi-0.dtd"
   xmlns:inkscape="http://www.inkscape.org/namespaces/inkscape"
   width="210mm"
   height="297mm"
   viewBox="0 0 744.09448819 1052.3622047"
   id="svg2"
   version="1.1"
   inkscape:version="0.91 r13725"
   sodipodi:docname="IMAT Pinhole Selector Schematic - Position 5.svg">
  <title
     id="title4138">IMAT Pinhole Selector Schematic - Position 5</title>
  <defs
     id="defs4" />
  <sodipodi:namedview
     id="base"
     pagecolor="#ffffff"
     bordercolor="#666666"
     borderopacity="1.0"
     inkscape:pageopacity="0.0"
     inkscape:pageshadow="2"
     inkscape:zoom="0.175"
     inkscape:cx="627.11597"
     inkscape:cy="634.60053"
     inkscape:document-units="px"
     inkscape:current-layer="layer1"
     showgrid="true"
     showborder="false"
     inkscape:window-width="1303"
     inkscape:window-height="906"
     inkscape:window-x="360"
     inkscape:window-y="66"
     inkscape:window-maximized="0"
     objecttolerance="10000"
     guidetolerance="10000"
     inkscape:snap-perpendicular="true">
    <inkscape:grid
       type="xygrid"
       id="grid4144"
       dotted="false"
       empspacing="50"
       spacingx="1"
       spacingy="1" />
  </sodipodi:namedview>
  <metadata
     id="metadata7">
    <rdf:RDF>
      <cc:Work
         rdf:about="">
        <dc:format>image/svg+xml</dc:format>
        <dc:type
           rdf:resource="http://purl.org/dc/dcmitype/StillImage" />
        <dc:title>IMAT Pinhole Selector Schematic - Position 5</dc:title>
      </cc:Work>
    </rdf:RDF>
  </metadata>
  <g
     inkscape:label="Layer 1"
     inkscape:groupmode="layer"
     id="layer1">
    <rect
       style="opacity:1;fill:#000000;fill-opacity:1;stroke:#000000;stroke-width:1.13960123;stroke-miterlimit:4;stroke-dasharray:none;stroke-opacity:1"
       id="rect4192"
       width="398.86041"
       height="398.86041"
       x="345.91681"
       y="-1739.2744"
       inkscape:transform-center-y="-349.99997"
       transform="matrix(0.5,0.8660254,-0.8660254,0.5,0,0)"
       inkscape:transform-center-x="-606.21773" />
    <path
       style="opacity:1;fill:#000000;fill-opacity:1;stroke:#000000;stroke-width:1.13960123;stroke-miterlimit:4;stroke-dasharray:none;stroke-opacity:1"
       d="m 1878.6447,329.36613 -345.4231,-199.43092 -199.4309,345.42306 345.423,199.43101 199.431,-345.42315 z m -251.1482,59.55727 a 24.916943,24.916943 0 0 1 0.3,25.42187 24.916943,24.916943 0 0 1 -34.0366,9.12113 24.916943,24.916943 0 0 1 -9.1204,-34.03921 24.916943,24.916943 0 0 1 34.0375,-9.11941 24.916943,24.916943 0 0 1 8.8195,8.61562 z"
       id="rect4194"
       inkscape:connector-curvature="0" />
    <path
       style="opacity:1;fill:#000000;fill-opacity:1;stroke:#000000;stroke-width:1.13960123;stroke-miterlimit:4;stroke-dasharray:none;stroke-opacity:1"
       d="m 1199.4299,552.93152 -398.86073,7.5e-4 6.9e-4,398.86067 398.86074,-7.7e-4 -7e-4,-398.86065 z m -158.2036,173.42861 a 49.503315,49.503315 0 0 1 7.8461,26.74617 49.503315,49.503315 0 0 1 -49.50273,49.50484 49.503315,49.503315 0 0 1 -49.5032,-49.50361 49.503315,49.503315 0 0 1 49.5037,-49.50323 49.503315,49.503315 0 0 1 41.65613,22.75583 z"
       id="rect4196"
       inkscape:connector-curvature="0" />
    <path
       style="opacity:1;fill:#000000;fill-opacity:1;stroke:#000000;stroke-width:1.13960123;stroke-miterlimit:4;stroke-dasharray:none;stroke-opacity:1"
       d="m 466.77926,129.93574 -345.4241,199.43069 199.42981,345.4223 345.424,-199.43062 -199.42971,-345.42237 z m -11.29348,236.5132 a 74.501663,74.501663 0 0 1 -27.27061,101.76988 74.501663,74.501663 0 0 1 -101.7706,-27.2679 74.501663,74.501663 0 0 1 27.26959,-101.77161 74.501663,74.501663 0 0 1 101.77162,27.26963 z"
       id="rect4198"
       inkscape:connector-curvature="0" />
    <path
       style="opacity:1;fill:#000000;fill-opacity:1;stroke:#000000;stroke-width:1.13960123;stroke-miterlimit:4;stroke-dasharray:none;stroke-opacity:1"
       d="m 666.20917,-370.63384 -345.42309,-199.43092 -199.43101,345.42313 345.4231,199.430933 199.431,-345.423143 z m -188.96139,21.13899 a 99.66777,99.66777 0 0 1 1.19919,101.69034 99.66777,99.66777 0 0 1 -136.14831,36.48121 99.66777,99.66777 0 0 1 -36.48119,-136.14821 99.66777,99.66777 0 0 1 136.14832,-36.48122 99.66777,99.66777 0 0 1 35.28199,34.45788 z"
       id="rect4200"
       inkscape:connector-curvature="0" />
    <path
       style="opacity:1;fill:#000000;fill-opacity:1;stroke:#000000;stroke-width:1.13960123;stroke-miterlimit:4;stroke-dasharray:none;stroke-opacity:1"
       d="m 1199.4299,-847.06842 -398.86071,7.6e-4 7.8e-4,398.86057 398.86063,-6.8e-4 -7e-4,-398.86065 z m -95.0077,131.87933 a 124.58472,124.58472 0 0 1 19.7498,67.31329 124.58472,124.58472 0 0 1 -124.58421,124.5849 124.58472,124.58472 0 0 1 -124.58491,-124.58429 124.58472,124.58472 0 0 1 124.58431,-124.58485 124.58472,124.58472 0 0 1 104.83501,57.27095 z"
       id="rect4202"
       inkscape:connector-curvature="0" />
    <ellipse
       style="opacity:1;fill:none;fill-opacity:1;stroke:#000000;stroke-width:9.9568491;stroke-miterlimit:4;stroke-dasharray:none;stroke-opacity:1"
       id="path4136"
       cx="892.20648"
       cy="-454.65302"
       rx="995.02161"
       ry="995.02155"
       transform="matrix(0.8660254,0.5,-0.5,0.8660254,0,0)" />
    <circle
       style="opacity:1;fill:#000000;fill-opacity:1;stroke:#000000;stroke-width:1.22549021;stroke-miterlimit:4;stroke-dasharray:none;stroke-opacity:1"
       id="path4170"
       cx="545.34698"
       cy="-839.84424"
       r="30.637255"
       transform="matrix(0.5,0.8660254,-0.8660254,0.5,0,0)" />
    <g
       id="g4255">
      <path
         inkscape:connector-curvature="0"
         id="path4239"
         d="m 952.02031,-647.99843 99.99999,0 0,0"
         style="fill:none;fill-rule:evenodd;stroke:#ff0000;stroke-width:4.87950087;stroke-linecap:butt;stroke-linejoin:miter;stroke-miterlimit:4;stroke-dasharray:none;stroke-opacity:1" />
      <path
         inkscape:connector-curvature="0"
         id="path4241"
         d="m 1000.2333,-695.62583 0,95.24071 0,0"
         style="fill:none;fill-rule:evenodd;stroke:#ff0000;stroke-width:4.76195908;stroke-linecap:butt;stroke-linejoin:miter;stroke-miterlimit:4;stroke-dasharray:none;stroke-opacity:1" />
    </g>
  </g>
</svg>
