<?xml version="1.0" encoding="UTF-8" standalone="no"?>
<svg
   xmlns:dc="http://purl.org/dc/elements/1.1/"
   xmlns:cc="http://creativecommons.org/ns#"
   xmlns:rdf="http://www.w3.org/1999/02/22-rdf-syntax-ns#"
   xmlns:svg="http://www.w3.org/2000/svg"
   xmlns="http://www.w3.org/2000/svg"
   xmlns:sodipodi="http://sodipodi.sourceforge.net/DTD/sodipodi-0.dtd"
   xmlns:inkscape="http://www.inkscape.org/namespaces/inkscape"
   version="1.1"
   id="svg2"
   viewBox="0 0 744.09448819 1052.3622047"
   height="297mm"
   width="210mm"
   inkscape:version="0.91 r13725"
   sodipodi:docname="IMAT Pinhole Selector Schematic - Position 0.svg"
   inkscape:export-filename="C:\Instrument\Dev\Client\base\org.csstudio.isis.opis\resources\pinhole_selector\IMAT Pinhole Selector Schematic - Position 0.png"
   inkscape:export-xdpi="5.7600002"
   inkscape:export-ydpi="5.7600002">
  <sodipodi:namedview
     pagecolor="#ffffff"
     bordercolor="#666666"
     borderopacity="1"
     objecttolerance="10"
     gridtolerance="10"
     guidetolerance="10"
     inkscape:pageopacity="0"
     inkscape:pageshadow="2"
     inkscape:window-width="780"
     inkscape:window-height="480"
     id="namedview4720"
     showgrid="false"
     showborder="true"
     inkscape:zoom="0.11212869"
     inkscape:cx="416.50915"
     inkscape:cy="735.70596"
     inkscape:window-x="384"
     inkscape:window-y="252"
     inkscape:window-maximized="0"
     inkscape:current-layer="svg2" />
  <title
     id="title4138">IMAT Pinhole Selector Schematic - Position 0</title>
  <defs
     id="defs4" />
  <metadata
     id="metadata7">
    <rdf:RDF>
      <cc:Work
         rdf:about="">
        <dc:format>image/svg+xml</dc:format>
        <dc:type
           rdf:resource="http://purl.org/dc/dcmitype/StillImage" />
        <dc:title>IMAT Pinhole Selector Schematic - Position 0</dc:title>
      </cc:Work>
    </rdf:RDF>
  </metadata>
  <g
     id="g5819"
     transform="matrix(0.12,0,0,0.12,228.96236,518.7499)">
    <g
       id="layer1">
      <rect
         style="opacity:1;fill:#000000;fill-opacity:1;stroke:#000000;stroke-width:1.13960123;stroke-miterlimit:4;stroke-dasharray:none;stroke-opacity:1"
         id="rect4192"
         width="398.86041"
         height="398.86041"
         x="800.56982"
         y="-847.06799" />
      <path
         style="opacity:1;fill:#000000;fill-opacity:1;stroke:#000000;stroke-width:1.13960123;stroke-miterlimit:4;stroke-dasharray:none;stroke-opacity:1"
         d="m 1679.2148,-570.06445 -345.4238,199.42968 199.4297,345.423832 345.4238,-199.429682 -199.4297,-345.42383 z m -73.996,247.27929 a 24.916943,24.916943 0 0 1 22.166,12.45118 24.916943,24.916943 0 0 1 -9.1192,34.0371 24.916943,24.916943 0 0 1 -34.039,-9.12109 24.916943,24.916943 0 0 1 9.1211,-34.03711 24.916943,24.916943 0 0 1 11.8711,-3.33008 z"
         id="rect4194"
         inkscape:connector-curvature="0" />
      <path
         style="opacity:1;fill:#000000;fill-opacity:1;stroke:#000000;stroke-width:1.13960123;stroke-miterlimit:4;stroke-dasharray:none;stroke-opacity:1"
         d="M 1533.2207,129.93555 1333.791,475.35938 1679.2148,674.78906 1878.6445,329.36523 1533.2207,129.93555 Z m 71.0918,223.72265 a 49.503315,49.503315 0 0 1 27.0859,6.57813 49.503315,49.503315 0 0 1 18.1211,67.62305 49.503315,49.503315 0 0 1 -67.623,18.11914 49.503315,49.503315 0 0 1 -18.1192,-67.62305 49.503315,49.503315 0 0 1 40.5352,-24.69727 z"
         id="rect4196"
         inkscape:connector-curvature="0" />
      <path
         style="opacity:1;fill:#000000;fill-opacity:1;stroke:#000000;stroke-width:1.13960123;stroke-miterlimit:4;stroke-dasharray:none;stroke-opacity:1"
         d="m 800.57031,552.93164 0,398.86133 398.85939,0 0,-398.86133 -398.85939,0 z M 999.75,680.96875 a 74.501663,74.501663 0 0 1 74.5,74.50195 74.501663,74.501663 0 0 1 -74.5,74.50196 A 74.501663,74.501663 0 0 1 925.24805,755.4707 74.501663,74.501663 0 0 1 999.75,680.96875 Z"
         id="rect4198"
         inkscape:connector-curvature="0" />
      <path
         style="opacity:1;fill:#000000;fill-opacity:1;stroke:#000000;stroke-width:1.13960123;stroke-miterlimit:4;stroke-dasharray:none;stroke-opacity:1"
         d="M 466.7793,129.93555 121.35547,329.36523 320.78516,674.78906 666.20898,475.35938 466.7793,129.93555 Z m -76.17383,174.21484 a 99.66777,99.66777 0 0 1 88.66601,49.80664 99.66777,99.66777 0 0 1 -36.48046,136.14844 99.66777,99.66777 0 0 1 -136.14844,-36.48047 99.66777,99.66777 0 0 1 36.48047,-136.14844 99.66777,99.66777 0 0 1 47.48242,-13.32617 z"
         id="rect4200"
         inkscape:connector-curvature="0" />
      <path
         style="opacity:1;fill:#000000;fill-opacity:1;stroke:#000000;stroke-width:1.13960123;stroke-miterlimit:4;stroke-dasharray:none;stroke-opacity:1"
         d="M 320.78516,-570.06445 121.35547,-224.64062 466.7793,-25.210938 666.20898,-370.63477 320.78516,-570.06445 Z m 66.70703,148.21875 a 124.58472,124.58472 0 0 1 68.16992,16.55273 124.58472,124.58472 0 0 1 45.60156,170.18555 124.58472,124.58472 0 0 1 -170.18555,45.60156 124.58472,124.58472 0 0 1 -45.60156,-170.18555 124.58472,124.58472 0 0 1 102.01563,-62.15429 z"
         id="rect4202"
         inkscape:connector-curvature="0" />
      <ellipse
         style="opacity:1;fill:none;fill-opacity:1;stroke:#000000;stroke-width:9.9568491;stroke-miterlimit:4;stroke-dasharray:none;stroke-opacity:1"
         id="path4136"
         cx="1000"
         cy="52.362209"
         rx="995.02161"
         ry="995.02155" />
      <circle
         style="opacity:1;fill:#000000;fill-opacity:1;stroke:#000000;stroke-width:1.22549021;stroke-miterlimit:4;stroke-dasharray:none;stroke-opacity:1"
         id="path4170"
         cx="1000"
         cy="52.362228"
         r="30.637255" />
      <g
         id="g4255">
        <path
           id="path4239"
           d="m 952.02031,-647.99843 99.99999,0 0,0"
           style="fill:none;fill-rule:evenodd;stroke:#ff0000;stroke-width:4.87950087;stroke-linecap:butt;stroke-linejoin:miter;stroke-miterlimit:4;stroke-dasharray:none;stroke-opacity:1"
           inkscape:connector-curvature="0" />
        <path
           id="path4241"
           d="m 1000.2333,-695.62583 0,95.24071 0,0"
           style="fill:none;fill-rule:evenodd;stroke:#ff0000;stroke-width:4.76195908;stroke-linecap:butt;stroke-linejoin:miter;stroke-miterlimit:4;stroke-dasharray:none;stroke-opacity:1"
           inkscape:connector-curvature="0" />
      </g>
    </g>
  </g>
</svg>
