<?xml version="1.0" encoding="UTF-8" standalone="no"?>
<!-- Created with Inkscape (http://www.inkscape.org/) -->

<svg
   xmlns:dc="http://purl.org/dc/elements/1.1/"
   xmlns:cc="http://creativecommons.org/ns#"
   xmlns:rdf="http://www.w3.org/1999/02/22-rdf-syntax-ns#"
   xmlns:svg="http://www.w3.org/2000/svg"
   xmlns="http://www.w3.org/2000/svg"
   xmlns:sodipodi="http://sodipodi.sourceforge.net/DTD/sodipodi-0.dtd"
   xmlns:inkscape="http://www.inkscape.org/namespaces/inkscape"
   width="210mm"
   height="297mm"
   viewBox="0 0 744.09448819 1052.3622047"
   id="svg2"
   version="1.1"
   inkscape:version="0.91 r13725"
   sodipodi:docname="IMAT Pinhole Selector Schematic - Position 1.svg">
  <title
     id="title4138">IMAT Pinhole Selector Schematic - Position 1</title>
  <defs
     id="defs4" />
  <sodipodi:namedview
     id="base"
     pagecolor="#ffffff"
     bordercolor="#666666"
     borderopacity="1.0"
     inkscape:pageopacity="0.0"
     inkscape:pageshadow="2"
     inkscape:zoom="0.175"
     inkscape:cx="627.11597"
     inkscape:cy="634.60053"
     inkscape:document-units="px"
     inkscape:current-layer="layer1"
     showgrid="true"
     showborder="false"
     inkscape:window-width="1303"
     inkscape:window-height="906"
     inkscape:window-x="360"
     inkscape:window-y="66"
     inkscape:window-maximized="0"
     objecttolerance="10000"
     guidetolerance="10000"
     inkscape:snap-perpendicular="true">
    <inkscape:grid
       type="xygrid"
       id="grid4144"
       dotted="false"
       empspacing="50"
       spacingx="1"
       spacingy="1" />
  </sodipodi:namedview>
  <metadata
     id="metadata7">
    <rdf:RDF>
      <cc:Work
         rdf:about="">
        <dc:format>image/svg+xml</dc:format>
        <dc:type
           rdf:resource="http://purl.org/dc/dcmitype/StillImage" />
        <dc:title>IMAT Pinhole Selector Schematic - Position 1</dc:title>
      </cc:Work>
    </rdf:RDF>
  </metadata>
  <g
     inkscape:label="Layer 1"
     inkscape:groupmode="layer"
     id="layer1">
    <rect
       style="opacity:1;fill:#000000;fill-opacity:1;stroke:#000000;stroke-width:1.13960123;stroke-miterlimit:4;stroke-dasharray:none;stroke-opacity:1"
       id="rect4192"
       width="398.86041"
       height="398.86041"
       x="255.22284"
       y="-7.2236958"
       inkscape:transform-center-y="-350"
       transform="matrix(0.5,-0.8660254,0.8660254,0.5,0,0)"
       inkscape:transform-center-x="606.21779" />
    <path
       style="opacity:1;fill:#000000;fill-opacity:1;stroke:#000000;stroke-width:1.13960123;stroke-miterlimit:4;stroke-dasharray:none;stroke-opacity:1"
       d="m 800.57011,-847.06841 -7.3e-4,398.86062 398.86062,7.3e-4 8e-4,-398.86062 -398.86069,-7.3e-4 z m 177.15215,187.72206 a 24.916943,24.916943 0 0 1 21.86604,-12.97073 24.916943,24.916943 0 0 1 24.9174,24.91601 24.916943,24.916943 0 0 1 -24.91861,24.91809 24.916943,24.916943 0 0 1 -24.91645,-24.91766 24.916943,24.916943 0 0 1 3.05162,-11.94571 z"
       id="rect4194"
       inkscape:connector-curvature="0" />
    <path
       style="opacity:1;fill:#000000;fill-opacity:1;stroke:#000000;stroke-width:1.13960123;stroke-miterlimit:4;stroke-dasharray:none;stroke-opacity:1"
       d="m 1333.7908,-370.63381 199.431,345.423099 345.4231,-199.430949 -199.431,-345.4231 -345.4231,199.43095 z m 229.2954,50.29402 a 49.503315,49.503315 0 0 1 19.2398,-20.16801 49.503315,49.503315 0 0 1 67.6238,18.11819 49.503315,49.503315 0 0 1 -18.1198,67.6228 49.503315,49.503315 0 0 1 -67.6229,-18.11983 49.503315,49.503315 0 0 1 -1.1209,-47.45315 z"
       id="rect4196"
       inkscape:connector-curvature="0" />
    <path
       style="opacity:1;fill:#000000;fill-opacity:1;stroke:#000000;stroke-width:1.13960123;stroke-miterlimit:4;stroke-dasharray:none;stroke-opacity:1"
       d="m 1333.791,475.35808 345.4241,199.43067 199.4296,-345.42237 -345.424,-199.43066 -199.4297,345.42236 z m 210.4732,-108.47611 a 74.501663,74.501663 0 0 1 101.7706,-27.26792 74.501663,74.501663 0 0 1 27.2706,101.76987 74.501663,74.501663 0 0 1 -101.7716,27.2696 74.501663,74.501663 0 0 1 -27.2696,-101.77155 z"
       id="rect4198"
       inkscape:connector-curvature="0" />
    <path
       style="opacity:1;fill:#000000;fill-opacity:1;stroke:#000000;stroke-width:1.13960123;stroke-miterlimit:4;stroke-dasharray:none;stroke-opacity:1"
       d="m 800.57014,552.93153 -7.4e-4,398.86065 398.8607,7.4e-4 7e-4,-398.86064 -398.86066,-7.5e-4 z m 112.78757,153.07589 a 99.66777,99.66777 0 0 1 87.46679,-51.88369 99.66777,99.66777 0 0 1 99.6678,99.66722 99.66777,99.66777 0 0 1 -99.6672,99.66777 99.66777,99.66777 0 0 1 -99.6678,-99.66723 99.66777,99.66777 0 0 1 12.20041,-47.78407 z"
       id="rect4200"
       inkscape:connector-curvature="0" />
    <path
       style="opacity:1;fill:#000000;fill-opacity:1;stroke:#000000;stroke-width:1.13960123;stroke-miterlimit:4;stroke-dasharray:none;stroke-opacity:1"
       d="M 121.35529,329.36617 320.78626,674.78926 666.20934,475.35829 466.77837,129.9352 121.35529,329.36617 Z m 161.71472,16.33939 a 124.58472,124.58472 0 0 1 48.42004,-50.76052 124.58472,124.58472 0 0 1 170.18579,45.60067 124.58472,124.58472 0 0 1 -45.60066,170.18579 124.58472,124.58472 0 0 1 -170.18579,-45.60067 124.58472,124.58472 0 0 1 -2.81938,-119.42527 z"
       id="rect4202"
       inkscape:connector-curvature="0" />
    <ellipse
       style="opacity:1;fill:none;fill-opacity:1;stroke:#000000;stroke-width:9.9568491;stroke-miterlimit:4;stroke-dasharray:none;stroke-opacity:1"
       id="path4136"
       cx="-52.362194"
       cy="1000"
       rx="995.02161"
       ry="995.02155"
       transform="matrix(0,-1,1,0,0,0)" />
    <circle
       style="opacity:1;fill:#000000;fill-opacity:1;stroke:#000000;stroke-width:1.22549021;stroke-miterlimit:4;stroke-dasharray:none;stroke-opacity:1"
       id="path4170"
       cx="454.65302"
       cy="892.20654"
       r="30.637255"
       transform="matrix(0.5,-0.8660254,0.8660254,0.5,0,0)" />
    <g
       id="g4255">
      <path
         inkscape:connector-curvature="0"
         id="path4239"
         d="m 952.02031,-647.99843 99.99999,0 0,0"
         style="fill:none;fill-rule:evenodd;stroke:#ff0000;stroke-width:4.87950087;stroke-linecap:butt;stroke-linejoin:miter;stroke-miterlimit:4;stroke-dasharray:none;stroke-opacity:1" />
      <path
         inkscape:connector-curvature="0"
         id="path4241"
         d="m 1000.2333,-695.62583 0,95.24071 0,0"
         style="fill:none;fill-rule:evenodd;stroke:#ff0000;stroke-width:4.76195908;stroke-linecap:butt;stroke-linejoin:miter;stroke-miterlimit:4;stroke-dasharray:none;stroke-opacity:1" />
    </g>
  </g>
</svg>
