<?xml version="1.0" encoding="UTF-8" standalone="no"?>
<!-- Created with Inkscape (http://www.inkscape.org/) -->

<svg
   xmlns:dc="http://purl.org/dc/elements/1.1/"
   xmlns:cc="http://creativecommons.org/ns#"
   xmlns:rdf="http://www.w3.org/1999/02/22-rdf-syntax-ns#"
   xmlns:svg="http://www.w3.org/2000/svg"
   xmlns="http://www.w3.org/2000/svg"
   xmlns:sodipodi="http://sodipodi.sourceforge.net/DTD/sodipodi-0.dtd"
   xmlns:inkscape="http://www.inkscape.org/namespaces/inkscape"
   width="210mm"
   height="297mm"
   viewBox="0 0 744.09448819 1052.3622047"
   id="svg2"
   version="1.1"
   inkscape:version="0.91 r13725"
   sodipodi:docname="IMAT Pinhole Selector Schematic - Position 2.svg">
  <title
     id="title4138">IMAT Pinhole Selector Schematic - Position 2</title>
  <defs
     id="defs4" />
  <sodipodi:namedview
     id="base"
     pagecolor="#ffffff"
     bordercolor="#666666"
     borderopacity="1.0"
     inkscape:pageopacity="0.0"
     inkscape:pageshadow="2"
     inkscape:zoom="0.175"
     inkscape:cx="627.11597"
     inkscape:cy="634.60053"
     inkscape:document-units="px"
     inkscape:current-layer="layer1"
     showgrid="true"
     showborder="false"
     inkscape:window-width="1303"
     inkscape:window-height="906"
     inkscape:window-x="360"
     inkscape:window-y="66"
     inkscape:window-maximized="0"
     objecttolerance="10000"
     guidetolerance="10000"
     inkscape:snap-perpendicular="true">
    <inkscape:grid
       type="xygrid"
       id="grid4144"
       dotted="false"
       empspacing="50"
       spacingx="1"
       spacingy="1" />
  </sodipodi:namedview>
  <metadata
     id="metadata7">
    <rdf:RDF>
      <cc:Work
         rdf:about="">
        <dc:format>image/svg+xml</dc:format>
        <dc:type
           rdf:resource="http://purl.org/dc/dcmitype/StillImage" />
        <dc:title>IMAT Pinhole Selector Schematic - Position 2</dc:title>
      </cc:Work>
    </rdf:RDF>
  </metadata>
  <g
     inkscape:label="Layer 1"
     inkscape:groupmode="layer"
     id="layer1">
    <rect
       style="opacity:1;fill:#000000;fill-opacity:1;stroke:#000000;stroke-width:1.13960123;stroke-miterlimit:4;stroke-dasharray:none;stroke-opacity:1"
       id="rect4192"
       width="398.86041"
       height="398.86041"
       x="-744.77716"
       y="-59.585888"
       inkscape:transform-center-y="350"
       transform="matrix(-0.5,-0.8660254,0.8660254,-0.5,0,0)"
       inkscape:transform-center-x="606.21779" />
    <path
       style="opacity:1;fill:#000000;fill-opacity:1;stroke:#000000;stroke-width:1.13960123;stroke-miterlimit:4;stroke-dasharray:none;stroke-opacity:1"
       d="M 121.3553,-224.64176 466.77837,-25.210815 666.20931,-370.63388 320.78628,-570.06488 121.3553,-224.64176 Z m 251.14815,-59.55723 a 24.916943,24.916943 0 0 1 -0.29996,-25.42191 24.916943,24.916943 0 0 1 34.0366,-9.1211 24.916943,24.916943 0 0 1 9.12039,34.0392 24.916943,24.916943 0 0 1 -34.03755,9.11945 24.916943,24.916943 0 0 1 -8.81948,-8.61564 z"
       id="rect4194"
       inkscape:connector-curvature="0" />
    <path
       style="opacity:1;fill:#000000;fill-opacity:1;stroke:#000000;stroke-width:1.13960123;stroke-miterlimit:4;stroke-dasharray:none;stroke-opacity:1"
       d="m 800.57011,-448.20712 398.86069,-7.6e-4 -7e-4,-398.86066 -398.8607,7.7e-4 7.1e-4,398.86065 z m 158.2036,-173.42863 a 49.503315,49.503315 0 0 1 -7.84611,-26.74616 49.503315,49.503315 0 0 1 49.5027,-49.50484 49.503315,49.503315 0 0 1 49.5032,49.50361 49.503315,49.503315 0 0 1 -49.5037,49.50324 49.503315,49.503315 0 0 1 -41.65609,-22.75585 z"
       id="rect4196"
       inkscape:connector-curvature="0" />
    <path
       style="opacity:1;fill:#000000;fill-opacity:1;stroke:#000000;stroke-width:1.13960123;stroke-miterlimit:4;stroke-dasharray:none;stroke-opacity:1"
       d="m 1533.2207,-25.211349 345.4241,-199.430711 -199.4298,-345.42228 -345.424,199.43063 199.4297,345.422361 z m 11.2935,-236.513191 a 74.501663,74.501663 0 0 1 27.2706,-101.76989 74.501663,74.501663 0 0 1 101.7706,27.26791 74.501663,74.501663 0 0 1 -27.2696,101.77159 74.501663,74.501663 0 0 1 -101.7716,-27.26961 z"
       id="rect4198"
       inkscape:connector-curvature="0" />
    <path
       style="opacity:1;fill:#000000;fill-opacity:1;stroke:#000000;stroke-width:1.13960123;stroke-miterlimit:4;stroke-dasharray:none;stroke-opacity:1"
       d="m 1333.7908,475.35819 345.4231,199.43096 199.431,-345.42313 -345.4231,-199.43092 -199.431,345.42309 z m 188.9614,-21.13896 a 99.66777,99.66777 0 0 1 -1.1992,-101.69031 99.66777,99.66777 0 0 1 136.1483,-36.48123 99.66777,99.66777 0 0 1 36.4812,136.14821 99.66777,99.66777 0 0 1 -136.1483,36.48123 99.66777,99.66777 0 0 1 -35.282,-34.4579 z"
       id="rect4200"
       inkscape:connector-curvature="0" />
    <path
       style="opacity:1;fill:#000000;fill-opacity:1;stroke:#000000;stroke-width:1.13960123;stroke-miterlimit:4;stroke-dasharray:none;stroke-opacity:1"
       d="m 800.57013,951.79282 398.86067,-7.4e-4 -8e-4,-398.86065 -398.86062,7.4e-4 7.5e-4,398.86065 z M 895.57781,819.91346 A 124.58472,124.58472 0 0 1 875.82793,752.60022 124.58472,124.58472 0 0 1 1000.4122,628.01533 124.58472,124.58472 0 0 1 1124.9971,752.59956 124.58472,124.58472 0 0 1 1000.4128,877.18444 124.58472,124.58472 0 0 1 895.57781,819.91346 Z"
       id="rect4202"
       inkscape:connector-curvature="0" />
    <ellipse
       style="opacity:1;fill:none;fill-opacity:1;stroke:#000000;stroke-width:9.9568491;stroke-miterlimit:4;stroke-dasharray:none;stroke-opacity:1"
       id="path4136"
       cx="-892.20648"
       cy="454.65302"
       rx="995.02161"
       ry="995.02155"
       transform="matrix(-0.8660254,-0.5,0.5,-0.8660254,0,0)" />
    <circle
       style="opacity:1;fill:#000000;fill-opacity:1;stroke:#000000;stroke-width:1.22549021;stroke-miterlimit:4;stroke-dasharray:none;stroke-opacity:1"
       id="path4170"
       cx="-545.34698"
       cy="839.84436"
       r="30.637255"
       transform="matrix(-0.5,-0.8660254,0.8660254,-0.5,0,0)" />
    <g
       id="g4255">
      <path
         inkscape:connector-curvature="0"
         id="path4239"
         d="m 952.02031,-647.99843 99.99999,0 0,0"
         style="fill:none;fill-rule:evenodd;stroke:#ff0000;stroke-width:4.87950087;stroke-linecap:butt;stroke-linejoin:miter;stroke-miterlimit:4;stroke-dasharray:none;stroke-opacity:1" />
      <path
         inkscape:connector-curvature="0"
         id="path4241"
         d="m 1000.2333,-695.62583 0,95.24071 0,0"
         style="fill:none;fill-rule:evenodd;stroke:#ff0000;stroke-width:4.76195908;stroke-linecap:butt;stroke-linejoin:miter;stroke-miterlimit:4;stroke-dasharray:none;stroke-opacity:1" />
    </g>
  </g>
</svg>
